<svg width="145" height="51" viewBox="0 0 145 51" fill="none" xmlns="http://www.w3.org/2000/svg">
<g id="logo 1" clip-path="url(#clip0_243_304)">
<g id="Group">
<g id="Group_2">
<path id="Vector" d="M8.0306 9.44519H0V2.60426H23.7356V9.44519H15.705V50.5135H8.02286V9.44519H8.0306Z" fill="black"/>
<path id="Vector_2" d="M27.7158 4.24426C27.7158 1.77667 29.4582 0 31.9751 0C34.4919 0 36.304 1.77667 36.304 4.24426C36.304 6.56759 34.4919 8.42019 31.9751 8.42019C29.4582 8.42019 27.7158 6.63593 27.7158 4.24426ZM28.6219 14.4411H35.3902V50.5135H28.6219V14.4411Z" fill="black"/>
<path id="Vector_3" d="M48.3075 9.44519H40.2847V2.60426H64.0202V9.44519H55.9896V50.5135H48.3075V9.44519Z" fill="black"/>
<path id="Vector_4" d="M68.0005 4.24426C68.0005 1.77667 69.7429 0 72.2597 0C74.7766 0 76.5887 1.77667 76.5887 4.24426C76.5887 6.56759 74.7766 8.42019 72.2597 8.42019C69.7429 8.42019 68.0005 6.63593 68.0005 4.24426ZM68.9065 14.4411H75.6749V50.5135H68.9065V14.4411Z" fill="black"/>
<path id="Vector_5" d="M88.5921 9.44519H80.5615V2.60426H104.297V9.44519H96.2665V50.5135H88.5921V9.44519Z" fill="black"/>
<path id="Vector_6" d="M108.278 4.24426C108.278 1.77667 110.02 0 112.537 0C115.054 0 116.866 1.77667 116.866 4.24426C116.866 6.56759 115.054 8.42019 112.537 8.42019C110.028 8.42019 108.278 6.63593 108.278 4.24426ZM109.184 14.4411H115.952V50.5135H109.184V14.4411Z" fill="black"/>
<path id="Vector_7" d="M125.276 48.1218C123.347 46.0718 122.379 43.1715 122.379 39.4283V13.6894C122.379 9.9463 123.347 7.05352 125.276 4.99593C127.204 2.94593 130.015 1.91333 133.686 1.91333C137.364 1.91333 140.168 2.93833 142.096 4.99593C144.024 7.04593 144.992 9.9463 144.992 13.6894V18.7537H137.728V13.2111C137.728 10.2424 136.45 8.76185 133.887 8.76185C131.324 8.76185 130.046 10.2424 130.046 13.2111V39.975C130.046 42.8981 131.324 44.3559 133.887 44.3559C136.443 44.3559 137.728 42.8981 137.728 39.975V32.6481H144.992V39.4207C144.992 43.1639 144.024 46.0567 142.096 48.1143C140.168 50.1643 137.356 51.1968 133.686 51.1968C130.015 51.1968 127.212 50.1718 125.276 48.1218Z" fill="black"/>
</g>
</g>
</g>
<defs>
<clipPath id="clip0_243_304">
<rect width="145" height="51" fill="white"/>
</clipPath>
</defs>
</svg>
