<svg width="145" height="51" viewBox="0 0 145 51" fill="none" xmlns="http://www.w3.org/2000/svg">
<g id="logo 1" clip-path="url(#clip0_41_806)">
<g id="Group">
<g id="Group_2">
<path id="Vector" d="M8.0306 9.44519H0V2.60426H23.7356V9.44519H15.705V50.5135H8.02286V9.44519H8.0306Z" fill="black"/>
<path id="Vector_2" d="M27.7168 4.24426C27.7168 1.77667 29.4592 0 31.976 0C34.4929 0 36.305 1.77667 36.305 4.24426C36.305 6.56759 34.4929 8.42019 31.976 8.42019C29.4592 8.42019 27.7168 6.63593 27.7168 4.24426ZM28.6229 14.4411H35.3912V50.5135H28.6229V14.4411Z" fill="black"/>
<path id="Vector_3" d="M48.308 9.44519H40.2852V2.60426H64.0207V9.44519H55.9901V50.5135H48.308V9.44519Z" fill="black"/>
<path id="Vector_4" d="M68 4.24426C68 1.77667 69.7424 0 72.2592 0C74.7761 0 76.5882 1.77667 76.5882 4.24426C76.5882 6.56759 74.7761 8.42019 72.2592 8.42019C69.7424 8.42019 68 6.63593 68 4.24426ZM68.9061 14.4411H75.6744V50.5135H68.9061V14.4411Z" fill="black"/>
<path id="Vector_5" d="M88.5931 9.44519H80.5625V2.60426H104.298V9.44519H96.2675V50.5135H88.5931V9.44519Z" fill="black"/>
<path id="Vector_6" d="M108.277 4.24426C108.277 1.77667 110.02 0 112.537 0C115.053 0 116.866 1.77667 116.866 4.24426C116.866 6.56759 115.053 8.42019 112.537 8.42019C110.028 8.42019 108.277 6.63593 108.277 4.24426ZM109.183 14.4411H115.952V50.5135H109.183V14.4411Z" fill="black"/>
<path id="Vector_7" d="M125.275 48.1218C123.347 46.0718 122.379 43.1715 122.379 39.4283V13.6894C122.379 9.9463 123.347 7.05352 125.275 4.99593C127.203 2.94593 130.015 1.91333 133.685 1.91333C137.364 1.91333 140.167 2.93833 142.095 4.99593C144.024 7.04593 144.992 9.9463 144.992 13.6894V18.7537H137.728V13.2111C137.728 10.2424 136.45 8.76185 133.887 8.76185C131.323 8.76185 130.046 10.2424 130.046 13.2111V39.975C130.046 42.8981 131.323 44.3559 133.887 44.3559C136.442 44.3559 137.728 42.8981 137.728 39.975V32.6481H144.992V39.4207C144.992 43.1639 144.024 46.0567 142.095 48.1143C140.167 50.1643 137.356 51.1968 133.685 51.1968C130.015 51.1968 127.211 50.1718 125.275 48.1218Z" fill="black"/>
</g>
</g>
</g>
<defs>
<clipPath id="clip0_41_806">
<rect width="145" height="51" fill="white"/>
</clipPath>
</defs>
</svg>
